<?xml version="1.0" encoding="utf-8"?>
<!-- Generator: Adobe Illustrator 24.0.1, SVG Export Plug-In . SVG Version: 6.00 Build 0)  -->
<svg version="1.1" id="圖層_1" xmlns="http://www.w3.org/2000/svg" xmlns:xlink="http://www.w3.org/1999/xlink" x="0px" y="0px"
	 viewBox="0 0 640 640" style="enable-background:new 0 0 640 640;" xml:space="preserve">
<style type="text/css">
	.st0{stroke:#000000;stroke-miterlimit:10;}
</style>
<g>
	<path class="st0" d="M226.1,333.7c0,5.6,0.7,11,2,16.1l78.2-78.2c-5.1-1.3-10.5-2-16.1-2C254.9,269.5,226.1,298.3,226.1,333.7z"/>
	<path class="st0" d="M50.9,306.3c24.1-23.9,56.1-32.5,89.9-38.2c31.8-5.3,40.9-25.3,50-44c8-16.5,14-35.2,36.6-60.5
		c5.1-5.4,22.1-21.1,40.5-11.7c19,9.8,21.2,30.9,31.1,45.7c2.4,3.6,26.8,33.4,55,8.5c33.3-29.4,45.3-42,45.3-42
		c0.3-0.2,0.6-0.5,0.8-0.8L486,77.3C438.8,44.9,381.6,26,320,26C157.6,26,26,157.6,26,320c0,6.8,0.3,13.5,0.7,20.2
		C32.8,327.8,40.8,316.4,50.9,306.3z"/>
	<path class="st0" d="M331.9,284.9c-4.5-3.9-9.6-7.1-15.1-9.7l-84.9,84.9c2.5,5.5,5.8,10.6,9.7,15.1L331.9,284.9z"/>
	<path class="st0" d="M460.5,223.9c-4.3,4.3-5.1,10.9-1.9,16.1c34.9,57.3,51.4,107.3,10.9,147.8c-30,30-51.4,36.1-69.7,45.4
		c-17.9,9.1-38.6,17.3-44,50c-5.5,33.8-14.3,66-38.2,89.9c-17,17-37.9,28.2-60.7,34c20.3,4.5,41.5,6.8,63.2,6.8
		c162.4,0,294-131.6,294-294c0-69.9-24.4-134-65.1-184.4L460.5,223.9z"/>
	<path class="st0" d="M348.6,307.2c-2.5-5.5-5.8-10.6-9.7-15.1l-90.4,90.4c4.5,3.9,9.6,7.1,15.1,9.7L348.6,307.2z"/>
	<path class="st0" d="M354.4,333.7c0-5.6-0.7-11-2-16.1l-78.2,78.2c5.1,1.3,10.5,2,16.1,2C325.7,397.8,354.4,369.1,354.4,333.7z"/>
</g>
</svg>
